<?xml version="1.0" encoding="UTF-8" standalone="no"?>
<!-- Created with Inkscape (http://www.inkscape.org/) -->

<svg
   xmlns:dc="http://purl.org/dc/elements/1.1/"
   xmlns:cc="http://creativecommons.org/ns#"
   xmlns:rdf="http://www.w3.org/1999/02/22-rdf-syntax-ns#"
   xmlns:svg="http://www.w3.org/2000/svg"
   xmlns="http://www.w3.org/2000/svg"
   xmlns:sodipodi="http://sodipodi.sourceforge.net/DTD/sodipodi-0.dtd"
   xmlns:inkscape="http://www.inkscape.org/namespaces/inkscape"
   width="32px"
   height="32px"
   id="svg18051"
   version="1.1"
   inkscape:version="0.48.4 r9939"
   sodipodi:docname="New document 85">
  <defs
     id="defs18053" />
  <sodipodi:namedview
     id="base"
     pagecolor="#ffffff"
     bordercolor="#666666"
     borderopacity="1.0"
     inkscape:pageopacity="0.0"
     inkscape:pageshadow="2"
     inkscape:zoom="11.197802"
     inkscape:cx="16"
     inkscape:cy="16"
     inkscape:current-layer="layer1"
     showgrid="true"
     inkscape:grid-bbox="true"
     inkscape:document-units="px"
     inkscape:snap-bbox="true"
     inkscape:snap-global="false"
     inkscape:window-width="944"
     inkscape:window-height="1002"
     inkscape:window-x="960"
     inkscape:window-y="0"
     inkscape:window-maximized="0">
    <inkscape:grid
       type="xygrid"
       id="grid18059" />
  </sodipodi:namedview>
  <metadata
     id="metadata18056">
    <rdf:RDF>
      <cc:Work
         rdf:about="">
        <dc:format>image/svg+xml</dc:format>
        <dc:type
           rdf:resource="http://purl.org/dc/dcmitype/StillImage" />
        <dc:title></dc:title>
      </cc:Work>
    </rdf:RDF>
  </metadata>
  <g
     id="layer1"
     inkscape:label="Layer 1"
     inkscape:groupmode="layer">
    <g
       transform="matrix(1.3734126,0,0,1.3734126,560.82995,-132.23844)"
       id="g10104">
      <path
         sodipodi:nodetypes="ccccccccccccccccccc"
         inkscape:connector-curvature="0"
         id="path10302-2-4-7-5-4-2-9-2-0-7-2"
         d="m -407.61965,116.68689 c 0.016,0.30302 0.2197,0.58807 0.5011,0.70142 0.092,0.053 0.1949,0.0873 0.3004,0.10004 l 20.2405,0 c 0.034,0.003 0.067,0.003 0.1002,0 0.1964,-0.0334 0.3791,-0.14269 0.5009,-0.30045 0.043,-0.0616 0.077,-0.12922 0.1002,-0.20039 0.053,-0.0924 0.087,-0.19496 0.1001,-0.30046 -0.013,-0.10547 -0.047,-0.2084 -0.1001,-0.30043 0,-0.0334 0,-0.0668 0,-0.10004 l -10.1203,-17.535068 c -0.029,-0.0362 -0.064,-0.0695 -0.1001,-0.10005 -0.1443,-0.18052 -0.3701,-0.29338 -0.6012,-0.30044 -0.1055,0.0128 -0.2084,0.0471 -0.3005,0.10005 -0.1609,0.0542 -0.3036,0.16127 -0.4008,0.30043 l -10.1202,17.535068 c 0,0.0333 0,0.0668 0,0.10004 -0.052,0.0924 -0.087,0.19495 -0.1002,0.30043 z"
         style="font-size:medium;font-style:normal;font-variant:normal;font-weight:normal;font-stretch:normal;text-indent:0;text-align:start;text-decoration:none;line-height:normal;letter-spacing:normal;word-spacing:normal;text-transform:none;direction:ltr;block-progression:tb;writing-mode:lr-tb;text-anchor:start;baseline-shift:baseline;color:#000000;fill:#ff0000;fill-opacity:1;stroke:none;stroke-width:1.75;marker:none;visibility:visible;display:inline;overflow:visible;enable-background:accumulate;font-family:Sans;-inkscape-font-specification:Sans" />
      <rect
         y="103.73874"
         x="-397.974"
         height="7.2786961"
         width="2.5519459"
         id="rect10446-2-3-7-6-6-2-5"
         style="fill:#ffffff;fill-opacity:1;stroke:none" />
      <rect
         y="112.71812"
         x="-398.19446"
         height="2.9931087"
         width="2.9931087"
         id="rect10448-3-2-3-0-1-6-3"
         style="fill:#ffffff;fill-opacity:1;stroke:none" />
    </g>
  </g>
</svg>
