<?xml version="1.0" encoding="UTF-8" standalone="no"?>
<!-- Created with Inkscape (http://www.inkscape.org/) -->

<svg
   xmlns:dc="http://purl.org/dc/elements/1.1/"
   xmlns:cc="http://creativecommons.org/ns#"
   xmlns:rdf="http://www.w3.org/1999/02/22-rdf-syntax-ns#"
   xmlns:svg="http://www.w3.org/2000/svg"
   xmlns="http://www.w3.org/2000/svg"
   xmlns:sodipodi="http://sodipodi.sourceforge.net/DTD/sodipodi-0.dtd"
   xmlns:inkscape="http://www.inkscape.org/namespaces/inkscape"
   width="32px"
   height="32px"
   id="svg19239"
   version="1.1"
   inkscape:version="0.48.4 r9939"
   sodipodi:docname="button_image_off.svg">
  <defs
     id="defs19241" />
  <sodipodi:namedview
     id="base"
     pagecolor="#ffffff"
     bordercolor="#666666"
     borderopacity="1.0"
     inkscape:pageopacity="0.0"
     inkscape:pageshadow="2"
     inkscape:zoom="22.395603"
     inkscape:cx="17.257762"
     inkscape:cy="17.903635"
     inkscape:current-layer="layer1"
     showgrid="true"
     inkscape:grid-bbox="true"
     inkscape:document-units="px"
     inkscape:snap-bbox="true"
     inkscape:window-width="944"
     inkscape:window-height="1002"
     inkscape:window-x="960"
     inkscape:window-y="0"
     inkscape:window-maximized="0">
    <inkscape:grid
       type="xygrid"
       id="grid19247" />
  </sodipodi:namedview>
  <metadata
     id="metadata19244">
    <rdf:RDF>
      <cc:Work
         rdf:about="">
        <dc:format>image/svg+xml</dc:format>
        <dc:type
           rdf:resource="http://purl.org/dc/dcmitype/StillImage" />
        <dc:title />
      </cc:Work>
    </rdf:RDF>
  </metadata>
  <g
     id="layer1"
     inkscape:label="Layer 1"
     inkscape:groupmode="layer">
    <rect
       style="fill:#c6c6c6;fill-opacity:1;stroke:none"
       id="rect11225-54-3-2-2-4-0-6-1-8"
       width="32.000019"
       height="17.454556"
       x="-1.9966821e-005"
       y="7.2598891"
       rx="4.3636389"
       ry="4.3636389"
       inkscape:export-filename="D:\Workspace\ORIGAME\Application\graphics\Buttons\ToggleOff.png"
       inkscape:export-xdpi="523.63635"
       inkscape:export-ydpi="523.63635" />
    <rect
       style="fill:#333333;fill-opacity:1;stroke:none"
       id="rect11225"
       width="30.545473"
       height="16.00001"
       x="0.72725326"
       y="7.9871626"
       rx="3.6363659"
       ry="3.6363659" />
    <path
       style="fill:#c6c6c6;fill-opacity:1;stroke:none"
       d="m 16.000005,8.7144596 0,14.5454634 8.727278,0 c 1.208728,0 2.181819,-1.288146 2.181819,-2.899784 l 0,-8.727278 c 0,-1.611637 -0.973091,-2.9184014 -2.181819,-2.9184014 z"
       id="rect11225-2"
       inkscape:connector-curvature="0"
       sodipodi:nodetypes="cccsscc" />
    <path
       sodipodi:type="arc"
       style="fill:#808080;fill-opacity:1;stroke:none"
       id="path11668-1"
       sodipodi:cx="706.5"
       sodipodi:cy="1743.8622"
       sodipodi:rx="1.5"
       sodipodi:ry="1.5"
       d="m 708,1743.8622 a 1.5,1.5 0 1 1 -3,0 1.5,1.5 0 1 1 3,0 z"
       transform="matrix(0.72726649,0,0,0.96969755,-492.35926,-1679.3954)" />
    <path
       style="fill:#e6e6e6;fill-opacity:1;stroke:none"
       d="m 4.3636336,8.7237687 c -1.6116373,0 -2.9090927,1.2974553 -2.9090927,2.9090923 l 0,8.727278 c 0,1.611638 1.2974554,2.909093 2.9090927,2.909093 l 11.6363714,-0.0095 0,-14.5454629 z"
       id="rect11225-2-6"
       inkscape:connector-curvature="0"
       sodipodi:nodetypes="csscccc" />
    <g
       style="font-size:5.93523359px;font-style:normal;font-variant:normal;font-weight:normal;font-stretch:normal;line-height:125%;letter-spacing:0px;word-spacing:0px;fill:#333333;fill-opacity:1;stroke:none;font-family:Estrangelo Edessa;-inkscape-font-specification:Estrangelo Edessa"
       id="text11017-5-1-17-4-8">
      <path
         d="m 7.9954913,17.737528 c -3.3e-6,-0.227979 -0.02512,-0.432292 -0.07535,-0.61294 -0.050236,-0.180644 -0.1246198,-0.333758 -0.2231508,-0.459343 -0.098537,-0.12558 -0.2202556,-0.221699 -0.365156,-0.288358 -0.1449056,-0.06665 -0.3120271,-0.09998 -0.501365,-0.09998 -0.1816139,3e-6 -0.3463203,0.03526 -0.4941197,0.105779 -0.1478027,0.07052 -0.2738684,0.16954 -0.3781973,0.297052 -0.1043314,0.127517 -0.1849941,0.280632 -0.2419883,0.459343 -0.056996,0.178716 -0.085494,0.376267 -0.085493,0.592654 -9e-7,0.21639 0.027048,0.413458 0.081146,0.591205 0.054096,0.177749 0.1318608,0.329414 0.2332941,0.454996 0.1014309,0.125583 0.2241154,0.223151 0.368054,0.292704 0.1439354,0.06955 0.3047778,0.104331 0.4825276,0.10433 0.1893378,1e-6 0.3583914,-0.03236 0.5071611,-0.09708 0.1487645,-0.06472 0.2743471,-0.158427 0.3767482,-0.281112 0.1023952,-0.122684 0.1806428,-0.273383 0.2347431,-0.452098 0.054094,-0.178712 0.081143,-0.381093 0.081146,-0.607144 z m 0.5854088,-0.06086 c -3.9e-6,0.303332 -0.04106,0.577199 -0.1231677,0.821601 -0.082115,0.244404 -0.1999699,0.452098 -0.3535637,0.623083 -0.1536006,0.170986 -0.3405255,0.302365 -0.5607753,0.394137 -0.2202554,0.09177 -0.4694886,0.137658 -0.7477003,0.137658 -0.2666237,0 -0.5081287,-0.04492 -0.7245158,-0.13476 C 5.8547874,19.428548 5.6702776,19.301033 5.5176472,19.135844 5.3650152,18.970655 5.2471607,18.772137 5.1640835,18.540292 5.0810053,18.308448 5.0394664,18.05052 5.0394667,17.766509 c -3e-7,-0.297533 0.041056,-0.567535 0.1231677,-0.810009 0.082111,-0.242468 0.2014148,-0.449197 0.3579108,-0.620186 0.1564945,-0.170982 0.3472835,-0.302844 0.5723675,-0.395585 0.2250813,-0.09273 0.4805937,-0.139103 0.7665378,-0.139107 0.2608233,4e-6 0.4974982,0.04541 0.7100255,0.136209 0.2125216,0.09081 0.3936503,0.218807 0.5433868,0.383993 0.1497298,0.165193 0.2651692,0.362744 0.3463186,0.592654 0.081142,0.229915 0.1217148,0.483979 0.1217187,0.762191 z"
         style=""
         id="path19446" />
      <path
         d="m 10.053116,17.221673 0.541938,0 0,0.379646 -0.541938,0 0,1.999664 -0.5564282,0 0,-1.999664 -0.4405056,0 0,-0.379646 0.4405056,0 0,-0.521652 c -6e-7,-0.293667 0.071968,-0.516818 0.2159057,-0.669452 0.1439362,-0.152628 0.3405215,-0.228943 0.5897555,-0.228947 0.04444,4e-6 0.09467,0.0048 0.1507,0.01449 0.05603,0.0097 0.103362,0.02126 0.142005,0.03478 l 0,0.454996 c -0.01739,-0.0039 -0.03864,-0.0082 -0.06376,-0.01304 -0.02512,-0.0048 -0.05072,-0.0087 -0.0768,-0.01159 -0.02608,-0.0029 -0.05072,-0.0053 -0.0739,-0.0072 -0.02319,-0.0019 -0.04347,-0.0029 -0.06086,-0.0029 -0.07728,3e-6 -0.141041,0.03092 -0.191272,0.09274 -0.05023,0.06183 -0.07535,0.159397 -0.07535,0.292704 z"
         style=""
         id="path19448" />
      <path
         d="m 11.8731,17.221673 0.541938,0 0,0.379646 -0.541938,0 0,1.999664 -0.556428,0 0,-1.999664 -0.440506,0 0,-0.379646 0.440506,0 0,-0.521652 c -1e-6,-0.293667 0.07197,-0.516818 0.215906,-0.669452 0.143936,-0.152628 0.340521,-0.228943 0.589755,-0.228947 0.04444,4e-6 0.09467,0.0048 0.1507,0.01449 0.05603,0.0097 0.103362,0.02126 0.142005,0.03478 l 0,0.454996 c -0.01739,-0.0039 -0.03864,-0.0082 -0.06376,-0.01304 -0.02512,-0.0048 -0.05072,-0.0087 -0.0768,-0.01159 -0.02608,-0.0029 -0.05072,-0.0053 -0.0739,-0.0072 -0.02319,-0.0019 -0.04347,-0.0029 -0.06086,-0.0029 -0.07728,3e-6 -0.141041,0.03092 -0.191272,0.09274 -0.05023,0.06183 -0.07535,0.159397 -0.07535,0.292704 z"
         style=""
         id="path19450" />
    </g>
    <g
       transform="scale(0.86464104,1.1565493)"
       style="font-size:5.13184643px;font-style:normal;font-variant:normal;font-weight:normal;font-stretch:normal;line-height:125%;letter-spacing:0px;word-spacing:0px;fill:#808080;fill-opacity:1;stroke:none;font-family:Estrangelo Edessa;-inkscape-font-specification:Estrangelo Edessa"
       id="text11017-5-1-17-4">
      <path
         d="m 24.575183,15.332687 c -2e-6,-0.197119 -0.02172,-0.373777 -0.06515,-0.529973 -0.04344,-0.156192 -0.107751,-0.28858 -0.192945,-0.397167 -0.0852,-0.108581 -0.190442,-0.19169 -0.315729,-0.249325 -0.125292,-0.05763 -0.269792,-0.08645 -0.433501,-0.08645 -0.157031,3e-6 -0.299443,0.03049 -0.427236,0.09146 -0.127796,0.06098 -0.236798,0.146591 -0.327005,0.256843 -0.09021,0.110257 -0.159953,0.242646 -0.209233,0.397167 -0.04928,0.154525 -0.07392,0.325336 -0.07392,0.512433 0,0.1871 0.02339,0.357493 0.07016,0.51118 0.04677,0.153689 0.114013,0.284825 0.201716,0.393408 0.0877,0.108585 0.193779,0.192946 0.318235,0.253084 0.124452,0.06014 0.263523,0.09021 0.417213,0.09021 0.163709,1e-6 0.30988,-0.02798 0.438512,-0.08394 0.128628,-0.05596 0.237212,-0.136983 0.325752,-0.243061 0.08854,-0.106078 0.156191,-0.236378 0.202969,-0.390903 0.04677,-0.154522 0.07016,-0.329509 0.07016,-0.524962 z m 0.506169,-0.05262 c -3e-6,0.262273 -0.0355,0.49907 -0.106496,0.71039 -0.071,0.211322 -0.172902,0.390903 -0.305706,0.538743 -0.132809,0.147842 -0.294432,0.261437 -0.484869,0.340787 -0.190442,0.07935 -0.405939,0.119025 -0.646492,0.119025 -0.230534,0 -0.439349,-0.03884 -0.626446,-0.116519 -0.1871,-0.07768 -0.346635,-0.187934 -0.478605,-0.330764 -0.131972,-0.142829 -0.233874,-0.314475 -0.305706,-0.514938 -0.07183,-0.200462 -0.107749,-0.423477 -0.107749,-0.669045 0,-0.257258 0.0355,-0.490714 0.106496,-0.700366 0.071,-0.209649 0.174152,-0.388394 0.309465,-0.536238 0.135311,-0.147839 0.300275,-0.261852 0.494892,-0.34204 0.194615,-0.08018 0.415541,-0.120274 0.66278,-0.120278 0.225519,4e-6 0.430157,0.03926 0.613917,0.117772 0.183755,0.07852 0.340366,0.18919 0.469835,0.332017 0.129462,0.142832 0.229276,0.313643 0.299441,0.512433 0.07016,0.198794 0.10524,0.418468 0.105243,0.659021 z"
         style=""
         id="path19453" />
      <path
         d="m 27.607183,16.943907 -0.483617,0 0,-1.272939 c -2e-6,-0.145334 -0.02965,-0.256841 -0.08895,-0.334522 -0.05931,-0.07768 -0.149096,-0.116517 -0.269372,-0.116519 -0.05346,2e-6 -0.105662,0.0067 -0.156612,0.02005 -0.05095,0.01337 -0.09898,0.03132 -0.144082,0.05387 -0.0451,0.02255 -0.08729,0.04761 -0.126542,0.07517 -0.03926,0.02756 -0.07476,0.05638 -0.106496,0.08645 l 0,1.488436 -0.481111,0 0,-2.057249 0.466076,0 0.01504,0.205474 c 0.03508,-0.03341 0.07434,-0.06515 0.117772,-0.09522 0.04343,-0.03007 0.09146,-0.05679 0.144082,-0.08019 0.05262,-0.02338 0.109418,-0.04218 0.170394,-0.05638 0.06097,-0.0142 0.125705,-0.0213 0.194198,-0.0213 0.255588,2e-6 0.444357,0.06849 0.566307,0.205474 0.121946,0.136985 0.18292,0.335777 0.182923,0.596377 z"
         style=""
         id="path19455" />
    </g>
  </g>
</svg>
