<?xml version="1.0" encoding="UTF-8" standalone="no"?>
<!-- Created with Inkscape (http://www.inkscape.org/) -->

<svg
   xmlns:dc="http://purl.org/dc/elements/1.1/"
   xmlns:cc="http://creativecommons.org/ns#"
   xmlns:rdf="http://www.w3.org/1999/02/22-rdf-syntax-ns#"
   xmlns:svg="http://www.w3.org/2000/svg"
   xmlns="http://www.w3.org/2000/svg"
   xmlns:sodipodi="http://sodipodi.sourceforge.net/DTD/sodipodi-0.dtd"
   xmlns:inkscape="http://www.inkscape.org/namespaces/inkscape"
   width="32px"
   height="32px"
   id="svg19239"
   version="1.1"
   inkscape:version="0.48.4 r9939"
   sodipodi:docname="button_image_on.svg">
  <defs
     id="defs19241" />
  <sodipodi:namedview
     id="base"
     pagecolor="#ffffff"
     bordercolor="#666666"
     borderopacity="1.0"
     inkscape:pageopacity="0.0"
     inkscape:pageshadow="2"
     inkscape:zoom="22.395604"
     inkscape:cx="18.381958"
     inkscape:cy="14.101669"
     inkscape:current-layer="text11017-5-1-17-4-8-5"
     showgrid="true"
     inkscape:grid-bbox="true"
     inkscape:document-units="px"
     inkscape:snap-bbox="true"
     inkscape:window-width="944"
     inkscape:window-height="1002"
     inkscape:window-x="960"
     inkscape:window-y="0"
     inkscape:window-maximized="0">
    <inkscape:grid
       type="xygrid"
       id="grid19247" />
  </sodipodi:namedview>
  <metadata
     id="metadata19244">
    <rdf:RDF>
      <cc:Work
         rdf:about="">
        <dc:format>image/svg+xml</dc:format>
        <dc:type
           rdf:resource="http://purl.org/dc/dcmitype/StillImage" />
        <dc:title></dc:title>
      </cc:Work>
    </rdf:RDF>
  </metadata>
  <g
     id="layer1"
     inkscape:label="Layer 1"
     inkscape:groupmode="layer">
    <rect
       style="fill:#c6c6c6;fill-opacity:1;stroke:none"
       id="rect11225-54-3-2-2-4-0-6-1-8-8"
       width="31.999979"
       height="17.454535"
       x="-31.999979"
       y="7.2598829"
       rx="4.3636336"
       ry="4.3636336"
       transform="scale(-1,1)"
       inkscape:export-filename="D:\Workspace\ORIGAME\Application\graphics\ToggleOn.png"
       inkscape:export-xdpi="523.63635"
       inkscape:export-ydpi="523.63635" />
    <rect
       style="fill:#333333;fill-opacity:1;stroke:none"
       id="rect11225-97"
       width="30.545435"
       height="15.99999"
       x="-31.272707"
       y="7.987155"
       rx="3.6363614"
       ry="3.6363614"
       transform="scale(-1,1)" />
    <path
       style="fill:#c6c6c6;fill-opacity:1;stroke:none"
       d="m 16.000005,8.7237732 0,14.5454448 -8.7272672,-0.0095 c -1.2087264,0 -2.1818166,-1.288144 -2.1818166,-2.89978 l 0,-8.727267 c 0,-1.611635 0.9730902,-2.9183974 2.1818166,-2.9183974 z"
       id="rect11225-2-22"
       inkscape:connector-curvature="0"
       sodipodi:nodetypes="cccsscc" />
    <path
       style="fill:#e6e6e6;fill-opacity:1;stroke:none"
       d="m 27.636361,8.7237732 c 1.611635,0 2.909089,1.2974538 2.909089,2.9090888 l 0,8.727267 c 0,1.611635 -1.297454,2.909089 -2.909089,2.909089 l -11.636356,0 0,-14.5454448 z"
       id="rect11225-2-6-2"
       inkscape:connector-curvature="0"
       sodipodi:nodetypes="csscccc" />
    <path
       sodipodi:type="arc"
       style="fill:#0066ff;fill-opacity:1;stroke:none"
       id="path11668-1-8"
       sodipodi:cx="706.5"
       sodipodi:cy="1743.8622"
       sodipodi:rx="1.5"
       sodipodi:ry="1.5"
       d="m 708,1743.8622 a 1.5,1.5 0 1 1 -3,0 1.5,1.5 0 1 1 3,0 z"
       transform="matrix(-0.96969304,0,0,0.96969631,708.36085,-1679.3838)" />
    <g
       style="font-size:5.93522596px;font-style:normal;font-variant:normal;font-weight:normal;font-stretch:normal;line-height:125%;letter-spacing:0px;word-spacing:0px;fill:#0066ff;fill-opacity:1;stroke:none;font-family:Estrangelo Edessa;-inkscape-font-specification:Estrangelo Edessa"
       id="text11017-5-1-17">
      <path
         d="m 22.997401,17.742215 c -3e-6,-0.227979 -0.02512,-0.432292 -0.07535,-0.61294 -0.05024,-0.180643 -0.12462,-0.333757 -0.223151,-0.459342 -0.09854,-0.12558 -0.220255,-0.221699 -0.365156,-0.288357 -0.144905,-0.06665 -0.312026,-0.09998 -0.501364,-0.09998 -0.181614,3e-6 -0.34632,0.03526 -0.494119,0.105779 -0.147803,0.07052 -0.273868,0.16954 -0.378197,0.297051 -0.104331,0.127517 -0.184994,0.280631 -0.241988,0.459343 -0.057,0.178715 -0.08549,0.376266 -0.08549,0.592653 0,0.21639 0.02705,0.413458 0.08115,0.591204 0.0541,0.177749 0.131861,0.329414 0.233294,0.454995 0.101431,0.125583 0.224115,0.223151 0.368054,0.292704 0.143935,0.06955 0.304777,0.104331 0.482526,0.10433 0.189338,10e-7 0.358391,-0.03236 0.507161,-0.09708 0.148764,-0.06472 0.274347,-0.158426 0.376748,-0.281111 0.102395,-0.122684 0.180642,-0.273383 0.234742,-0.452098 0.05409,-0.178712 0.08114,-0.381093 0.08115,-0.607143 z m 0.585408,-0.06086 c -4e-6,0.303331 -0.04106,0.577198 -0.123167,0.821599 -0.08212,0.244404 -0.19997,0.452098 -0.353564,0.623083 -0.1536,0.170986 -0.340525,0.302365 -0.560774,0.394136 -0.220255,0.09177 -0.469488,0.137658 -0.7477,0.137658 -0.266623,0 -0.508128,-0.04492 -0.724514,-0.13476 -0.21639,-0.08984 -0.4009,-0.217354 -0.55353,-0.382543 -0.152632,-0.165189 -0.270486,-0.363706 -0.353563,-0.595552 -0.08308,-0.231843 -0.124617,-0.48977 -0.124617,-0.773782 0,-0.297532 0.04106,-0.567534 0.123168,-0.810007 0.08211,-0.242468 0.201414,-0.449196 0.35791,-0.620185 0.156494,-0.170982 0.347283,-0.302844 0.572367,-0.395585 0.225081,-0.09273 0.480593,-0.139103 0.766537,-0.139107 0.260823,4e-6 0.497497,0.04541 0.710024,0.136209 0.212522,0.09081 0.39365,0.218807 0.543386,0.383993 0.14973,0.165192 0.265169,0.362743 0.346319,0.592653 0.08114,0.229915 0.121714,0.483978 0.121718,0.76219 z"
         style=""
         id="path19394" />
      <path
         d="m 26.504053,19.605667 -0.559325,0 0,-1.472214 c -2e-6,-0.168086 -0.0343,-0.297049 -0.102882,-0.386891 -0.06859,-0.08984 -0.172436,-0.134758 -0.311541,-0.13476 -0.06183,2e-6 -0.122203,0.0077 -0.181129,0.02318 -0.05893,0.01546 -0.114474,0.03623 -0.166638,0.06231 -0.05217,0.02608 -0.10095,0.05506 -0.146352,0.08694 -0.0454,0.03188 -0.08646,0.06521 -0.123168,0.09998 l 0,1.721447 -0.556427,0 0,-2.379307 0.539039,0 0.01739,0.237641 c 0.04057,-0.03864 0.08597,-0.07535 0.136209,-0.110126 0.05023,-0.03477 0.105778,-0.06569 0.166639,-0.09274 0.06086,-0.02705 0.126547,-0.04878 0.197068,-0.06521 0.07052,-0.01642 0.145384,-0.02463 0.224599,-0.02463 0.2956,3e-6 0.513921,0.07922 0.654962,0.237641 0.141036,0.158429 0.211555,0.388342 0.211558,0.689738 z"
         style=""
         id="path19396" />
    </g>
    <g
       transform="scale(0.86464104,1.1565493)"
       style="font-size:5.13183975px;font-style:normal;font-variant:normal;font-weight:normal;font-stretch:normal;line-height:125%;letter-spacing:0px;word-spacing:0px;fill:#808080;fill-opacity:1;stroke:none;font-family:Estrangelo Edessa;-inkscape-font-specification:Estrangelo Edessa"
       id="text11017-5-1-17-4-8-5">
      <path
         d="m 11.563556,15.33663 c -2e-6,-0.19712 -0.02172,-0.373777 -0.06515,-0.529973 -0.04344,-0.156191 -0.107751,-0.28858 -0.192945,-0.397166 -0.0852,-0.108581 -0.190442,-0.191689 -0.315728,-0.249325 -0.125292,-0.05763 -0.269792,-0.08645 -0.433501,-0.08645 -0.15703,3e-6 -0.299442,0.03049 -0.427235,0.09146 -0.127796,0.06098 -0.2367978,0.146591 -0.3270047,0.256843 -0.090209,0.110257 -0.1599533,0.242645 -0.2092328,0.397166 -0.049281,0.154525 -0.073921,0.325336 -0.07392,0.512433 -8e-7,0.187099 0.023387,0.357492 0.070162,0.511179 0.046774,0.153689 0.114012,0.284824 0.2017153,0.393408 0.087701,0.108584 0.1937792,0.192945 0.3182338,0.253083 0.124453,0.06014 0.263523,0.09021 0.417213,0.09021 0.163709,0 0.309879,-0.02798 0.438512,-0.08394 0.128627,-0.05596 0.237211,-0.136982 0.325751,-0.243061 0.08854,-0.106077 0.156191,-0.236378 0.202969,-0.390902 0.04677,-0.154522 0.07016,-0.329509 0.07016,-0.524961 z m 0.506168,-0.05262 c -3e-6,0.262273 -0.0355,0.499069 -0.106496,0.710389 -0.071,0.211321 -0.172901,0.390902 -0.305705,0.538743 -0.132809,0.147841 -0.294432,0.261436 -0.484868,0.340786 -0.190442,0.07935 -0.405939,0.119024 -0.646492,0.119024 -0.230533,0 -0.439348,-0.03884 -0.6264453,-0.116518 C 9.7126184,16.798754 9.5530838,16.688499 9.4211135,16.545669 9.2891418,16.402841 9.1872402,16.231195 9.1154082,16.030731 9.0435755,15.83027 9.0076594,15.607256 9.0076596,15.361688 c -2e-7,-0.257258 0.035498,-0.490713 0.1064957,-0.700366 0.070997,-0.209648 0.1741513,-0.388393 0.309464,-0.536237 0.1353114,-0.147838 0.3002751,-0.261851 0.4948918,-0.342039 0.1946139,-0.08018 0.4155409,-0.120274 0.6627789,-0.120278 0.225518,4e-6 0.430157,0.03926 0.613917,0.117772 0.183754,0.07852 0.340365,0.189189 0.469834,0.332016 0.129462,0.142832 0.229275,0.313643 0.29944,0.512432 0.07016,0.198794 0.10524,0.418468 0.105243,0.659021 z"
         style=""
         id="path19424" />
      <path
         d="m 13.342661,14.890601 0.468581,0 0,0.328257 -0.468581,0 0,1.728989 -0.48111,0 0,-1.728989 -0.380879,0 0,-0.328257 0.380879,0 0,-0.451041 c -1e-6,-0.253916 0.06223,-0.446861 0.186681,-0.578835 0.124453,-0.131968 0.294428,-0.197953 0.509926,-0.197957 0.03842,4e-6 0.08185,0.0042 0.130301,0.01253 0.04844,0.0084 0.08937,0.01838 0.122783,0.03007 l 0,0.393407 c -0.01504,-0.0033 -0.03341,-0.0071 -0.05513,-0.01128 -0.02172,-0.0042 -0.04385,-0.0075 -0.0664,-0.01002 -0.02255,-0.0025 -0.04385,-0.0046 -0.0639,-0.0063 -0.02005,-0.0017 -0.03759,-0.0025 -0.05262,-0.0025 -0.06682,3e-6 -0.121949,0.02673 -0.165382,0.08019 -0.04343,0.05346 -0.06515,0.13782 -0.06515,0.253084 z"
         style=""
         id="path19426" />
      <path
         d="m 14.916291,14.890601 0.468582,0 0,0.328257 -0.468582,0 0,1.728989 -0.481109,0 0,-1.728989 -0.380879,0 0,-0.328257 0.380879,0 0,-0.451041 c -10e-7,-0.253916 0.06223,-0.446861 0.18668,-0.578835 0.124453,-0.131968 0.294429,-0.197953 0.509927,-0.197957 0.03842,4e-6 0.08185,0.0042 0.1303,0.01253 0.04844,0.0084 0.08937,0.01838 0.122784,0.03007 l 0,0.393407 c -0.01504,-0.0033 -0.03341,-0.0071 -0.05513,-0.01128 -0.02172,-0.0042 -0.04385,-0.0075 -0.0664,-0.01002 -0.02255,-0.0025 -0.04385,-0.0046 -0.0639,-0.0063 -0.02005,-0.0017 -0.03759,-0.0025 -0.05262,-0.0025 -0.06682,3e-6 -0.121949,0.02673 -0.165381,0.08019 -0.04343,0.05346 -0.06515,0.13782 -0.06515,0.253084 z"
         style=""
         id="path19428" />
    </g>
  </g>
</svg>
