<?xml version="1.0" encoding="UTF-8" standalone="no"?>
<!-- Created with Inkscape (http://www.inkscape.org/) -->

<svg
   xmlns:dc="http://purl.org/dc/elements/1.1/"
   xmlns:cc="http://creativecommons.org/ns#"
   xmlns:rdf="http://www.w3.org/1999/02/22-rdf-syntax-ns#"
   xmlns:svg="http://www.w3.org/2000/svg"
   xmlns="http://www.w3.org/2000/svg"
   xmlns:sodipodi="http://sodipodi.sourceforge.net/DTD/sodipodi-0.dtd"
   xmlns:inkscape="http://www.inkscape.org/namespaces/inkscape"
   width="16"
   height="16"
   viewBox="0 0 16 16"
   id="svg4136"
   version="1.1"
   inkscape:version="0.91 r13725"
   sodipodi:docname="ifx_bar.svg">
  <defs
     id="defs4138" />
  <sodipodi:namedview
     id="base"
     pagecolor="#ffffff"
     bordercolor="#666666"
     borderopacity="1.0"
     inkscape:pageopacity="0.0"
     inkscape:pageshadow="2"
     inkscape:zoom="2.8"
     inkscape:cx="184.35714"
     inkscape:cy="100.96429"
     inkscape:document-units="px"
     inkscape:current-layer="layer1"
     showgrid="false"
     inkscape:window-width="1680"
     inkscape:window-height="932"
     inkscape:window-x="-8"
     inkscape:window-y="-8"
     inkscape:window-maximized="1"
     inkscape:showpageshadow="false"
     units="px" />
  <metadata
     id="metadata4141">
    <rdf:RDF>
      <cc:Work
         rdf:about="">
        <dc:format>image/svg+xml</dc:format>
        <dc:type
           rdf:resource="http://purl.org/dc/dcmitype/StillImage" />
        <dc:title></dc:title>
      </cc:Work>
    </rdf:RDF>
  </metadata>
  <g
     inkscape:label="Layer 1"
     inkscape:groupmode="layer"
     id="layer1"
     transform="translate(0,-1036.3622)">
    <path
       style="color:#000000;font-style:normal;font-variant:normal;font-weight:normal;font-stretch:normal;font-size:medium;line-height:normal;font-family:Sans;-inkscape-font-specification:Sans;text-indent:0;text-align:start;text-decoration:none;text-decoration-line:none;letter-spacing:normal;word-spacing:normal;text-transform:none;direction:ltr;block-progression:tb;writing-mode:lr-tb;baseline-shift:baseline;text-anchor:start;display:inline;overflow:visible;visibility:visible;fill:#ffffff;fill-opacity:1;fill-rule:nonzero;stroke:none;stroke-width:5;marker:none;enable-background:accumulate"
       d="m 1.6600288,1036.3622 c -0.90260001,0.109 -1.66439001,1.1253 -1.660010005856,2.2146 l 0,5.7855 C 0.01071879,1044.8747 0.16198879,1045.3833 0.43817879,1045.774 l 4.10371001,5.7855 c 0.34168,0.4957 0.87023,0.7976 1.40637,0.8027 l 4.1036102,0 c 0.53603,-0.01 1.064793,-0.307 1.406363,-0.8027 l 4.10372,-5.7855 c 0.27619,-0.3907 0.43377,-0.8993 0.43805,-1.4117 l 0,-5.7855 c 0,-1.1596 -0.87889,-2.2144 -1.84432,-2.2146 l -12.3112432,0 c -0.062,0 -0.12276,0 -0.18441,0 z m 1.31406,2.7406 2.21324,0 0,5.2041 -2.21324,0 0,-5.2041 z m 7.8386032,0 2.21324,0 0,5.2041 -2.21324,0 0,-5.2041 z m -2.8126332,7.1141 c 0.77664,0 1.40626,0.756 1.40626,1.6886 0,0.9325 -0.62962,1.6886 -1.40626,1.6886 -0.77674,0 -1.40626,-0.7561 -1.40626,-1.6886 0,-0.9326 0.62952,-1.6886 1.40626,-1.6886 z"
       id="path5928-3-4-4-1-0-7-5-9-76-4-1-6-5-4-1"
       inkscape:connector-curvature="0" />
  </g>
</svg>
