<?xml version="1.0" encoding="UTF-8" standalone="no"?>
<!-- Created with Inkscape (http://www.inkscape.org/) -->

<svg
   xmlns:dc="http://purl.org/dc/elements/1.1/"
   xmlns:cc="http://creativecommons.org/ns#"
   xmlns:rdf="http://www.w3.org/1999/02/22-rdf-syntax-ns#"
   xmlns:svg="http://www.w3.org/2000/svg"
   xmlns="http://www.w3.org/2000/svg"
   xmlns:sodipodi="http://sodipodi.sourceforge.net/DTD/sodipodi-0.dtd"
   xmlns:inkscape="http://www.inkscape.org/namespaces/inkscape"
   width="32px"
   height="32px"
   id="svg17993"
   version="1.1"
   inkscape:version="0.48.4 r9939"
   sodipodi:docname="New document 81">
  <defs
     id="defs17995" />
  <sodipodi:namedview
     id="base"
     pagecolor="#ffffff"
     bordercolor="#666666"
     borderopacity="1.0"
     inkscape:pageopacity="0.0"
     inkscape:pageshadow="2"
     inkscape:zoom="15.836083"
     inkscape:cx="22.693696"
     inkscape:cy="17.907316"
     inkscape:current-layer="layer1"
     showgrid="true"
     inkscape:grid-bbox="true"
     inkscape:document-units="px"
     inkscape:snap-bbox="true"
     inkscape:snap-global="false"
     inkscape:window-width="944"
     inkscape:window-height="1002"
     inkscape:window-x="960"
     inkscape:window-y="0"
     inkscape:window-maximized="0">
    <inkscape:grid
       type="xygrid"
       id="grid18001" />
  </sodipodi:namedview>
  <metadata
     id="metadata17998">
    <rdf:RDF>
      <cc:Work
         rdf:about="">
        <dc:format>image/svg+xml</dc:format>
        <dc:type
           rdf:resource="http://purl.org/dc/dcmitype/StillImage" />
        <dc:title></dc:title>
      </cc:Work>
    </rdf:RDF>
  </metadata>
  <g
     id="layer1"
     inkscape:label="Layer 1"
     inkscape:groupmode="layer">
    <path
       style="font-size:medium;font-style:normal;font-variant:normal;font-weight:normal;font-stretch:normal;text-indent:0;text-align:start;text-decoration:none;line-height:normal;letter-spacing:normal;word-spacing:normal;text-transform:none;direction:ltr;block-progression:tb;writing-mode:lr-tb;text-anchor:start;baseline-shift:baseline;color:#000000;fill:#49a2ff;fill-opacity:1;fill-rule:nonzero;stroke:none;stroke-width:1.75;marker:none;visibility:visible;display:inline;overflow:visible;enable-background:accumulate;font-family:Sans;-inkscape-font-specification:Sans"
       d="M 2.154432,1.17909 C 2.064772,1.208843 1.9803055,1.251377 1.9024278,1.3050921 1.8127678,1.3348451 1.7281015,1.3773791 1.6502837,1.4310942 1.475558,1.5531027 1.3406299,1.7326208 1.2729562,1.9349631 c -0.015974,0.083469 -0.015974,0.1683356 0,0.2520442 l 0,16.2063917 c -0.027158,0.124605 -0.027158,0.252923 0,0.377469 0.067294,0.202141 0.2026617,0.381739 0.3773275,0.503848 0.116817,0.06669 0.2454145,0.109424 0.3775671,0.126001 0.08267,0.01204 0.1685353,0.01204 0.2521242,0 l 4.2650825,0 -0.1134217,10.125599 c 0,0.04274 0,0.08407 0,0.126003 0,0.174924 0.043731,0.350589 0.1250038,0.503808 0.030751,0.08966 0.073284,0.174326 0.1266011,0.252084 0.03774,0.04572 0.080274,0.08747 0.1250038,0.126003 0.2537814,0.173129 0.5894143,0.221372 0.8814758,0.126002 0.1335905,-0.01598 0.262048,-0.05911 0.3776672,-0.126002 0.044935,-0.03854 0.087462,-0.08028 0.1264011,-0.126003 l 6.7909564,-11.006315 14.880614,0 c 0.08267,0.01203 0.168534,0.01203 0.252124,0 0.08966,-0.02995 0.174326,-0.07229 0.252024,-0.126002 0.244815,-0.128399 0.432121,-0.36295 0.503928,-0.629751 0.01598,-0.08366 0.01598,-0.168536 0,-0.252065 l 0,-16.2063918 C 30.857461,2.0550944 30.814329,1.9262567 30.746834,1.8102188 30.604458,1.4562148 30.245861,1.2005163 29.865239,1.1804877 l -27.5849246,0 c -0.043731,-0.00114 -0.08267,-0.00114 -0.1266012,0 z"
       id="path3792-4-4-6"
       inkscape:connector-curvature="0"
       sodipodi:nodetypes="ccccccccccccccccccccccccccccccc" />
  </g>
</svg>
