<?xml version="1.0" encoding="UTF-8" standalone="no"?>
<!-- Created with Inkscape (http://www.inkscape.org/) -->

<svg
   xmlns:dc="http://purl.org/dc/elements/1.1/"
   xmlns:cc="http://creativecommons.org/ns#"
   xmlns:rdf="http://www.w3.org/1999/02/22-rdf-syntax-ns#"
   xmlns:svg="http://www.w3.org/2000/svg"
   xmlns="http://www.w3.org/2000/svg"
   xmlns:sodipodi="http://sodipodi.sourceforge.net/DTD/sodipodi-0.dtd"
   xmlns:inkscape="http://www.inkscape.org/namespaces/inkscape"
   width="32px"
   height="32px"
   id="svg12621"
   version="1.1"
   inkscape:version="0.91 r13725"
   sodipodi:docname="part_actor_proxy.svg">
  <defs
     id="defs12623" />
  <sodipodi:namedview
     id="base"
     pagecolor="#ffffff"
     bordercolor="#666666"
     borderopacity="1.0"
     inkscape:pageopacity="0.0"
     inkscape:pageshadow="2"
     inkscape:zoom="15.836083"
     inkscape:cx="9.8843908"
     inkscape:cy="20.218515"
     inkscape:current-layer="layer1"
     showgrid="true"
     inkscape:grid-bbox="true"
     inkscape:document-units="px"
     inkscape:snap-bbox="true"
     inkscape:window-width="1920"
     inkscape:window-height="1005"
     inkscape:window-x="-9"
     inkscape:window-y="-9"
     inkscape:window-maximized="1">
    <inkscape:grid
       type="xygrid"
       id="grid12629" />
  </sodipodi:namedview>
  <metadata
     id="metadata12626">
    <rdf:RDF>
      <cc:Work
         rdf:about="">
        <dc:format>image/svg+xml</dc:format>
        <dc:type
           rdf:resource="http://purl.org/dc/dcmitype/StillImage" />
        <dc:title />
      </cc:Work>
    </rdf:RDF>
  </metadata>
  <g
     id="layer1"
     inkscape:label="Layer 1"
     inkscape:groupmode="layer">
    <rect
       inkscape:export-ydpi="669.00226"
       inkscape:export-xdpi="669.00226"
       inkscape:export-filename="D:\Workspace\ORIGAME\Application\graphics\part_actor.png"
       rx="0"
       ry="0"
       y="-4.5276283e-016"
       x="0"
       height="32"
       width="32"
       id="rect5820-2-55-1-0-4-9-5-5-4-1-1-1-5"
       style="fill:#9f9696;fill-opacity:1;stroke:none" />
    <path
       style="fill:#ffffff;fill-opacity:1;stroke:none"
       d="M 10.384193,15.596488 9.1343668,17.09623 9.0104156,17.470965 8.9481612,18.658361 7.2610678,18.908319 6.8861479,17.783512 6.6362012,17.408576 5.0738024,16.346358 l -0.7498399,0.437325 0.187971,1.937068 0.187971,0.312546 0.812466,0.874849 -0.9998795,1.437354 -1.1247599,-0.562503 -0.37492,-0.123979 -1.8746927,0.374936 -0.18797104,0.87485 1.43733254,1.187396 0.3750129,0.123978 1.2497332,0.06199 0.1879711,1.687111 -1.1247599,0.375135 -0.3123869,0.249958 -1.0624126,1.562132 0.437546,0.749871 1.8746928,-0.187968 0.3749199,-0.187968 0.8748133,-0.81246 1.3747994,1.062417 -0.5626122,1.062418 -0.062254,0.374736 0.3748271,1.874879 0.812373,0.249956 1.2497333,-1.499743 0.062254,-0.375135 0.062254,-1.187197 1.7498124,-0.249956 0.374827,1.124806 0.187971,0.374937 1.56212,1.062417 0.749933,-0.437525 -0.123951,-1.937267 -0.187971,-0.312346 -0.874813,-0.93744 1.062133,-1.374564 1.124853,0.562303 0.37492,0.06199 1.874693,-0.312347 0.187878,-0.874849 -1.43724,-1.187198 -0.375012,-0.125977 -1.249734,-0.06199 -0.249946,-1.68731 1.187386,-0.437325 0.312294,-0.187969 1.062505,-1.562331 -0.437546,-0.749872 -1.874693,0.187968 -0.375013,0.187968 -0.874813,0.81226 -1.374799,-1.062217 0.499986,-1.062218 0.123951,-0.375135 -0.37492,-1.874478 -0.81228,-0.249957 z M 8.4469671,21.3455 c 0.2772642,-0.04199 0.5863061,-0.07399 0.8748134,0 1.1545865,0.297149 1.8595475,1.532537 1.5623985,2.686939 -0.297148,1.154402 -1.4702248,1.796892 -2.6246254,1.499743 C 7.1051532,25.235033 6.4000992,24.062034 6.6972477,22.907631 6.9202484,22.041781 7.6150815,21.469479 8.4469671,21.3455 z"
       id="path45394-1-6-3-4-65-3-38-0"
       inkscape:connector-curvature="0" />
    <path
       style="fill:#ffffff;fill-opacity:1;stroke:none"
       d="M 18.570178,0.66145009 17.632925,0.84941833 17.195472,2.5991173 17.257726,3.2238101 17.570113,4.1612494 15.94546,4.97351 15.383126,4.1612494 14.945673,3.7237247 13.258487,2.9738533 12.508647,3.5989465 13.07098,5.3486455 13.38346,5.8485602 14.19574,6.5358419 13.133513,8.035584 12.258607,7.5982592 11.633741,7.4722814 9.821488,7.5982592 9.5091012,8.5354987 l 1.3122658,1.3123739 0.562427,0.2499574 0.999879,0.187969 -0.123951,1.812289 -0.999879,0.06199 -0.624867,0.187968 -1.4374256,1.062218 0.1879712,0.937439 1.7498124,0.437325 0.624867,-0.06199 0.937253,-0.312347 0.812373,1.624722 -0.874813,0.562503 -0.37492,0.437325 -0.749933,1.68711 0.624867,0.749872 1.749812,-0.562303 0.4998,-0.312347 0.687307,-0.812461 1.499773,1.062418 -0.437267,0.874649 -0.123952,0.625093 0.123952,1.812089 0.937253,0.312347 1.312359,-1.312175 0.187878,-0.562303 0.188064,-0.999829 1.8746,0.123978 0.06226,0.99983 0.187878,0.562502 1.062319,1.499743 0.937347,-0.187967 0.43736,-1.7497 -0.06225,-0.625093 -0.312573,-0.93724 1.624746,-0.812459 0.562519,0.875049 0.437268,0.374735 1.687279,0.749873 0.749933,-0.624693 -0.562427,-1.7497 -0.312387,-0.499915 -0.812558,-0.687481 1.062505,-1.499743 0.874813,0.437525 0.624867,0.123978 1.812067,-0.123978 0.312572,-0.937439 -1.312359,-1.312174 -0.562333,-0.187969 -0.999787,-0.187968 0.124044,-1.874477 0.999694,-0.06199 0.562426,-0.187968 1.49968,-1.062418 L 31.13153,9.0969987 29.381904,8.6594741 28.756944,8.7214683 27.819505,9.034014 27.007225,7.409293 27.819505,6.8469892 28.257051,6.4094646 29.006891,4.7221538 28.382024,3.9722823 26.632305,4.5347858 26.132411,4.8473325 25.444919,5.6595931 23.945146,4.5973756 24.382785,3.7223263 24.506736,3.0976326 24.382785,1.2853438 23.382905,0.97279803 22.133079,2.2851722 21.88304,2.8476767 21.695162,3.8475041 19.883095,3.7215263 19.82084,2.7216971 19.632777,2.1593942 18.570457,0.65965122 z m 1.749719,5.43666651 c 2.605578,0.021993 4.915959,1.9050738 5.436665,4.5616174 0.595133,3.036079 -1.400537,5.966577 -4.436785,6.561274 -3.036155,0.595298 -5.966199,-1.40056 -6.561239,-4.436638 -0.595226,-3.0360802 1.400445,-5.9661766 4.4366,-6.5614743 0.379472,-0.07399 0.752627,-0.1279782 1.124759,-0.1239791 z m -0.43736,3.6241778 c -1.105526,0.216963 -1.841428,1.2689816 -1.624653,2.3747936 0.216497,1.10521 1.268874,1.841484 2.374586,1.624521 1.105433,-0.216364 1.841336,-1.269183 1.624746,-2.374393 -0.216775,-1.10581 -1.269246,-1.8412834 -2.374679,-1.6249216 z"
       id="path33724-0-4-4-6-9-5-8-3"
       inkscape:connector-curvature="0" />
    <path
       transform="matrix(0.88785385,0,0,0.88785385,-101.51673,-426.39067)"
       d="m 144.42654,493.52692 a 7.5572028,7.5572028 0 1 1 -15.1144,0 7.5572028,7.5572028 0 1 1 15.1144,0 z"
       sodipodi:ry="7.5572028"
       sodipodi:rx="7.5572028"
       sodipodi:cy="493.52692"
       sodipodi:cx="136.86934"
       id="path20334-7-7-2-38-9-6-81-57-1"
       style="fill:#ffffff;fill-opacity:0.29787233;stroke:none"
       sodipodi:type="arc" />
  </g>
</svg>
