<?xml version="1.0" encoding="UTF-8" standalone="no"?>
<!-- Created with Inkscape (http://www.inkscape.org/) -->

<svg
   xmlns:dc="http://purl.org/dc/elements/1.1/"
   xmlns:cc="http://creativecommons.org/ns#"
   xmlns:rdf="http://www.w3.org/1999/02/22-rdf-syntax-ns#"
   xmlns:svg="http://www.w3.org/2000/svg"
   xmlns="http://www.w3.org/2000/svg"
   xmlns:sodipodi="http://sodipodi.sourceforge.net/DTD/sodipodi-0.dtd"
   xmlns:inkscape="http://www.inkscape.org/namespaces/inkscape"
   width="32px"
   height="32px"
   id="svg12355"
   version="1.1"
   inkscape:version="0.48.4 r9939"
   sodipodi:docname="part_function.svg">
  <defs
     id="defs12357" />
  <sodipodi:namedview
     id="base"
     pagecolor="#ffffff"
     bordercolor="#666666"
     borderopacity="1.0"
     inkscape:pageopacity="0.0"
     inkscape:pageshadow="2"
     inkscape:zoom="11.197802"
     inkscape:cx="24.761891"
     inkscape:cy="23.716596"
     inkscape:current-layer="layer1"
     showgrid="true"
     inkscape:grid-bbox="true"
     inkscape:document-units="px"
     inkscape:snap-bbox="true"
     inkscape:window-width="944"
     inkscape:window-height="858"
     inkscape:window-x="960"
     inkscape:window-y="4"
     inkscape:window-maximized="0">
    <inkscape:grid
       type="xygrid"
       id="grid12363" />
  </sodipodi:namedview>
  <metadata
     id="metadata12360">
    <rdf:RDF>
      <cc:Work
         rdf:about="">
        <dc:format>image/svg+xml</dc:format>
        <dc:type
           rdf:resource="http://purl.org/dc/dcmitype/StillImage" />
        <dc:title></dc:title>
      </cc:Work>
    </rdf:RDF>
  </metadata>
  <g
     id="layer1"
     inkscape:label="Layer 1"
     inkscape:groupmode="layer">
    <rect
       inkscape:export-ydpi="669.00226"
       inkscape:export-xdpi="669.00226"
       inkscape:export-filename="D:\Workspace\ORIGAME\Application\graphics\part_function.png"
       rx="0"
       ry="0"
       y="-4.5276283e-016"
       x="0"
       height="32"
       width="32"
       id="rect5820-2-55-1-0-4-4-2-6-1-8"
       style="fill:#0066ff;fill-opacity:1;stroke:none" />
    <g
       style="font-size:25.93272591px;font-style:normal;font-weight:normal;line-height:125%;letter-spacing:0px;word-spacing:0px;fill:#ffffff;fill-opacity:1;stroke:none;font-family:Sans"
       id="text9598-2-1-1-2">
      <path
         d="m 14.443751,10.75535 -1.727703,6.799344 c -0.631638,2.48938 -1.196392,4.339691 -1.694263,5.55094 -0.906582,2.192136 -2.0212279,3.730347 -3.3439394,4.614637 -1.025475,0.691075 -2.1995683,1.036615 -3.5222833,1.036622 -1.6199491,-7e-6 -2.4299249,-0.531321 -2.4299297,-1.593945 4.8e-6,-0.995755 0.5870515,-1.49363 1.7611417,-1.493626 0.9140124,-4e-6 1.371017,0.397553 1.3710153,1.192672 1.7e-6,0.282372 -0.07245,0.516447 -0.2173561,0.702227 -0.144902,0.185769 -0.2173539,0.286087 -0.2173561,0.300954 l 0.066879,0.100319 c 0.05945,0.05201 0.1300441,0.07802 0.2117829,0.07803 0.2898097,-6e-6 0.5387472,-0.09289 0.7468132,-0.278662 0.520169,-0.468156 0.9065795,-1.029195 1.1592325,-1.683116 0.2006362,-0.50531 0.5387453,-1.697981 1.0143285,-3.578016 l 3.0095457,-11.748375 -2.0509496,0 0.4904445,-1.7277025 c 0.7356635,0.014875 1.2781241,-0.085443 1.6273841,-0.3009546 0.326958,-0.2006226 0.672499,-0.6353344 1.036621,-1.3041365 2.013788,-3.7154702 4.484586,-5.5732127 7.4124,-5.5732331 1.798283,2.04e-5 2.69743,0.6539457 2.697445,1.961778 -1.5e-5,1.107233 -0.49789,1.6608403 -1.493626,1.6608235 -0.899161,1.68e-5 -1.348735,-0.4161175 -1.348723,-1.2484042 -1.2e-5,-0.2229111 0.07987,-0.482995 0.239649,-0.7802527 0.159753,-0.29722 0.239636,-0.4829942 0.239649,-0.5573233 C 19.48194,2.640742 19.351898,2.518131 19.091827,2.5181112 18.51963,2.518131 17.925152,2.8748175 17.308392,3.588172 16.305201,4.747422 15.49894,6.5605787 14.889609,9.0276475 l 2.140122,0 -0.512738,1.7277025 z"
         style="font-size:45.65592575px;font-family:Angsana New;-inkscape-font-specification:Angsana New Bold Italic"
         id="path12444" />
    </g>
    <g
       transform="matrix(0.73613834,0,0,0.73613834,-416.29966,-197.75783)"
       style="font-size:12px;font-style:oblique;font-variant:normal;font-weight:normal;font-stretch:normal;line-height:125%;letter-spacing:0px;word-spacing:0px;fill:#ffffff;fill-opacity:1;stroke:none;font-family:Monotype Corsiva;-inkscape-font-specification:Monotype Corsiva Oblique"
       id="flowRoot5509-4-0-5-9-6-6-5">
      <path
         d="m 589.35156,303.10628 c -0.63802,-0.73568 -1.23535,-1.58366 -1.79199,-2.54394 -0.55664,-0.96029 -0.94727,-1.8278 -1.17187,-2.60254 -0.22462,-0.77474 -0.33692,-1.63411 -0.33692,-2.57813 0,-0.84635 0.0977,-1.62922 0.29297,-2.34863 0.19531,-0.71939 0.51107,-1.47948 0.94727,-2.28027 0.43619,-0.80077 1.0205,-1.59342 1.75293,-2.37793 0.73241,-0.7845 1.60643,-1.58365 2.62207,-2.39746 l 0.12695,0 0.37109,0.38085 -0.01,0.12696 c -1.26303,1.26954 -2.23308,2.80763 -2.91016,4.61426 -0.67709,1.80664 -1.01563,3.7028 -1.01562,5.68847 -10e-6,1.24349 0.14322,2.35515 0.42968,3.33496 0.28646,0.97982 0.69661,1.83106 1.23047,2.55371 l -0.0293,0.11719 -0.39062,0.3125 z"
         style="font-size:20px;font-style:italic;font-weight:bold;fill:#ffffff;font-family:Palatino Linotype;-inkscape-font-specification:Palatino Linotype Bold Italic"
         id="path12447" />
      <path
         d="m 590.99219,300.70394 c 0.10416,-0.28646 0.1888,-0.65104 0.2539,-1.09375 0.0651,-0.44271 0.0977,-0.7015 0.0977,-0.77637 0,-0.0749 -0.003,-0.14811 -0.01,-0.21973 l 0.48829,-0.0488 0.11718,0.625 c 0.19531,0.0781 0.36784,0.11718 0.51758,0.11718 0.22786,0 0.47526,-0.083 0.74219,-0.24902 0.26692,-0.16601 0.64453,-0.56803 1.13281,-1.20605 0.48828,-0.63802 0.80403,-1.07096 0.94727,-1.29883 -0.20183,-1.21094 -0.35645,-2.06217 -0.46387,-2.55371 -0.10743,-0.49153 -0.26368,-0.8138 -0.46875,-0.9668 -0.20508,-0.15299 -0.40528,-0.22949 -0.60059,-0.22949 -0.24739,0 -0.5013,0.0846 -0.76172,0.2539 -0.26041,0.16928 -0.45573,0.37436 -0.58593,0.61524 l -0.11719,0.0391 -0.32227,-0.18555 -0.0195,-0.10742 c 0.65104,-1.02864 1.02865,-1.69595 1.13282,-2.00195 0.52083,-0.26692 1.01236,-0.40038 1.4746,-0.40039 0.61849,1e-5 1.08724,0.16765 1.40625,0.50293 0.31901,0.33529 0.53385,0.70639 0.64454,1.11328 0.11067,0.40691 0.21809,1.01726 0.32226,1.83105 0.9375,-1.37369 1.57389,-2.22981 1.90918,-2.56836 0.33528,-0.33853 0.63313,-0.56639 0.89356,-0.68359 0.2604,-0.11718 0.5078,-0.17577 0.74218,-0.17578 0.1888,10e-6 0.41341,0.0521 0.67383,0.15625 -0.22787,0.55339 -0.38087,1.28581 -0.45898,2.19726 l -0.41992,0.0781 -0.18555,-0.55664 c -0.13673,-0.0651 -0.26368,-0.0977 -0.38086,-0.0977 -0.35157,10e-6 -0.70313,0.15789 -1.05469,0.47364 -0.35157,0.31576 -0.8724,0.97494 -1.5625,1.97753 0.20182,1.32813 0.3776,2.25424 0.52735,2.77833 0.14973,0.52409 0.30272,0.86751 0.45898,1.03027 0.15624,0.16276 0.31575,0.24414 0.47852,0.24414 0.29296,0 0.791,-0.30273 1.49414,-0.9082 l 0.11718,0.01 0.22461,0.36133 -0.0195,0.11719 c -1.13933,0.99609 -1.88314,1.59017 -2.23144,1.78222 -0.34832,0.19206 -0.65268,0.28809 -0.91309,0.28809 -0.29948,0 -0.56967,-0.11719 -0.81055,-0.35156 -0.24089,-0.23438 -0.41504,-0.55339 -0.52246,-0.95703 -0.10742,-0.40365 -0.24903,-1.17839 -0.4248,-2.32422 -0.76172,1.10677 -1.30372,1.85709 -1.62598,2.25097 -0.32227,0.39388 -0.58594,0.68523 -0.79101,0.87403 -0.20508,0.1888 -0.40365,0.32064 -0.59571,0.39551 -0.19206,0.0749 -0.39225,0.1123 -0.60058,0.1123 -0.13021,0 -0.23275,-0.0114 -0.30762,-0.0342 -0.0749,-0.0228 -0.25553,-0.0993 -0.54199,-0.22949 z"
         style="font-size:20px;font-style:italic;font-weight:bold;fill:#ffffff;font-family:Palatino Linotype;-inkscape-font-specification:Palatino Linotype Bold Italic"
         id="path12449" />
      <path
         d="m 603.28711,285.97738 c 0.5664,0.62501 1.13769,1.42579 1.71387,2.40234 0.57616,0.97657 0.98469,1.86036 1.22558,2.65137 0.24088,0.79102 0.36133,1.68132 0.36133,2.67089 0,0.84636 -0.096,1.62761 -0.28809,2.34375 -0.19206,0.71615 -0.50781,1.47624 -0.94726,2.28028 -0.43946,0.80404 -1.02539,1.59831 -1.75781,2.38281 -0.73243,0.7845 -1.60645,1.58366 -2.62207,2.39746 l -0.12696,0 -0.37109,-0.38086 0.01,-0.13672 c 1.25651,-1.24349 2.22657,-2.77018 2.91016,-4.58007 0.68359,-1.8099 1.02539,-3.71419 1.02539,-5.7129 0,-2.42186 -0.55664,-4.38475 -1.66992,-5.88867 l 0.0293,-0.11718 0.39062,-0.3125 z"
         style="font-size:20px;font-style:italic;font-weight:bold;fill:#ffffff;font-family:Palatino Linotype;-inkscape-font-specification:Palatino Linotype Bold Italic"
         id="path12451" />
    </g>
  </g>
</svg>
