<?xml version="1.0" encoding="UTF-8" standalone="no"?>
<!-- Created with Inkscape (http://www.inkscape.org/) -->

<svg
   xmlns:dc="http://purl.org/dc/elements/1.1/"
   xmlns:cc="http://creativecommons.org/ns#"
   xmlns:rdf="http://www.w3.org/1999/02/22-rdf-syntax-ns#"
   xmlns:svg="http://www.w3.org/2000/svg"
   xmlns="http://www.w3.org/2000/svg"
   xmlns:sodipodi="http://sodipodi.sourceforge.net/DTD/sodipodi-0.dtd"
   xmlns:inkscape="http://www.inkscape.org/namespaces/inkscape"
   width="32px"
   height="32px"
   id="svg13633"
   version="1.1"
   inkscape:version="0.48.4 r9939"
   sodipodi:docname="New document 45">
  <defs
     id="defs13635" />
  <sodipodi:namedview
     id="base"
     pagecolor="#ffffff"
     bordercolor="#666666"
     borderopacity="1.0"
     inkscape:pageopacity="0.0"
     inkscape:pageshadow="2"
     inkscape:zoom="7.9180417"
     inkscape:cx="27.934273"
     inkscape:cy="29.405296"
     inkscape:current-layer="layer1"
     showgrid="true"
     inkscape:grid-bbox="true"
     inkscape:document-units="px"
     inkscape:snap-bbox="true"
     inkscape:window-width="944"
     inkscape:window-height="1002"
     inkscape:window-x="960"
     inkscape:window-y="0"
     inkscape:window-maximized="0">
    <inkscape:grid
       type="xygrid"
       id="grid13641" />
  </sodipodi:namedview>
  <metadata
     id="metadata13638">
    <rdf:RDF>
      <cc:Work
         rdf:about="">
        <dc:format>image/svg+xml</dc:format>
        <dc:type
           rdf:resource="http://purl.org/dc/dcmitype/StillImage" />
        <dc:title></dc:title>
      </cc:Work>
    </rdf:RDF>
  </metadata>
  <g
     id="layer1"
     inkscape:label="Layer 1"
     inkscape:groupmode="layer">
    <rect
       inkscape:export-ydpi="665.41516"
       inkscape:export-xdpi="665.41516"
       inkscape:export-filename="D:\Workspace\ORIGAME\Application\graphics\part_socket.png"
       rx="0"
       ry="0"
       y="-1.1379786e-015"
       x="0"
       height="32"
       width="32"
       id="rect5820-2-55-2-0-4-9-7-6-72-8-4"
       style="fill:#767676;fill-opacity:1;stroke:none" />
    <path
       inkscape:connector-curvature="0"
       id="path5928-3-4-4-1-0-7-5-9-76-4-1-6-5-4"
       d="M 6.7274984,7.0731094 C 5.4073886,7.2060076 4.2932803,8.4438646 4.2996572,9.7707206 l 0,7.0474854 c 0.01109,0.624104 0.2368694,1.24368 0.6407394,1.719637 l 6.0020444,7.047393 c 0.499708,0.603864 1.272884,0.971599 2.056965,0.977791 l 6.001952,0 c 0.783988,-0.01109 1.557256,-0.373927 2.056964,-0.977791 l 6.002045,-7.047393 c 0.403963,-0.475957 0.634455,-1.095533 0.640832,-1.719637 l 0,-7.0474854 C 27.700829,8.3582848 26.415654,7.0733867 25.003587,7.0731094 l -18.0064106,0 c -0.09057,0 -0.1795697,0 -0.269678,0 z m 1.9219408,3.3383506 3.2371518,0 0,6.339188 -3.2371518,0 0,-6.339188 z m 11.4647328,0 3.23706,0 0,6.339188 -3.23706,0 0,-6.339188 z m -4.113744,8.665831 c 1.135919,0 2.05678,0.920953 2.05678,2.056965 0,1.135919 -0.920861,2.056872 -2.05678,2.056872 -1.136104,0 -2.056872,-0.920953 -2.056872,-2.056872 0,-1.136012 0.920768,-2.056965 2.056872,-2.056965 z"
       style="font-size:medium;font-style:normal;font-variant:normal;font-weight:normal;font-stretch:normal;text-indent:0;text-align:start;text-decoration:none;line-height:normal;letter-spacing:normal;word-spacing:normal;text-transform:none;direction:ltr;block-progression:tb;writing-mode:lr-tb;text-anchor:start;baseline-shift:baseline;color:#000000;fill:#ffffff;fill-opacity:1;fill-rule:nonzero;stroke:none;stroke-width:5;marker:none;visibility:visible;display:inline;overflow:visible;enable-background:accumulate;font-family:Sans;-inkscape-font-specification:Sans" />
  </g>
</svg>
