<?xml version="1.0" encoding="UTF-8" standalone="no"?>
<!-- Created with Inkscape (http://www.inkscape.org/) -->

<svg
   xmlns:dc="http://purl.org/dc/elements/1.1/"
   xmlns:cc="http://creativecommons.org/ns#"
   xmlns:rdf="http://www.w3.org/1999/02/22-rdf-syntax-ns#"
   xmlns:svg="http://www.w3.org/2000/svg"
   xmlns="http://www.w3.org/2000/svg"
   xmlns:sodipodi="http://sodipodi.sourceforge.net/DTD/sodipodi-0.dtd"
   xmlns:inkscape="http://www.inkscape.org/namespaces/inkscape"
   width="32px"
   height="32px"
   id="svg12510"
   version="1.1"
   inkscape:version="0.48.4 r9939"
   sodipodi:docname="part_query.svg">
  <defs
     id="defs12512" />
  <sodipodi:namedview
     id="base"
     pagecolor="#ffffff"
     bordercolor="#666666"
     borderopacity="1.0"
     inkscape:pageopacity="0.0"
     inkscape:pageshadow="2"
     inkscape:zoom="11.197802"
     inkscape:cx="26.73065"
     inkscape:cy="17.819179"
     inkscape:current-layer="flowRoot5509-45-7-4-1-7-2-0-5-8"
     showgrid="true"
     inkscape:grid-bbox="true"
     inkscape:document-units="px"
     inkscape:snap-bbox="true"
     inkscape:window-width="944"
     inkscape:window-height="1002"
     inkscape:window-x="960"
     inkscape:window-y="0"
     inkscape:window-maximized="0">
    <inkscape:grid
       type="xygrid"
       id="grid12518" />
  </sodipodi:namedview>
  <metadata
     id="metadata12515">
    <rdf:RDF>
      <cc:Work
         rdf:about="">
        <dc:format>image/svg+xml</dc:format>
        <dc:type
           rdf:resource="http://purl.org/dc/dcmitype/StillImage" />
        <dc:title></dc:title>
      </cc:Work>
    </rdf:RDF>
  </metadata>
  <g
     id="layer1"
     inkscape:label="Layer 1"
     inkscape:groupmode="layer">
    <rect
       inkscape:export-ydpi="669.00226"
       inkscape:export-xdpi="669.00226"
       inkscape:export-filename="D:\Workspace\ORIGAME\Application\graphics\part_table.png"
       rx="0"
       ry="0"
       y="-4.5276283e-016"
       x="8.998878e-018"
       height="32"
       width="32"
       id="rect5820-2-55-1-0-4-43-1-2-3-34-8-3-9-9-1-3-8-8-7-7"
       style="fill:#0066ff;fill-opacity:1;stroke:none" />
    <path
       style="fill:#ffffff;fill-opacity:1;stroke:#0066ff;stroke-width:1.39375448;stroke-miterlimit:4;stroke-opacity:1;stroke-dasharray:none"
       d="m 4.0212627,5.2627952 0,21.5021128 c 0,2.37507 5.3629813,4.300458 11.9785763,4.300458 6.615595,0 11.978577,-1.925388 11.978577,-4.300458 l 0,-21.5021128 c 0,2.3750599 -5.362982,4.30043 -11.978577,4.30043 -6.615595,0 -11.9785763,-1.9253701 -11.9785763,-4.30043 z"
       id="path10786-4-7-6-5"
       inkscape:connector-curvature="0" />
    <path
       sodipodi:type="arc"
       style="fill:#ffffff;fill-opacity:1;stroke:#0066ff;stroke-width:0.45092505;stroke-miterlimit:4;stroke-opacity:1;stroke-dasharray:none"
       id="path10788-7-1-1-2-0"
       sodipodi:cx="-445"
       sodipodi:cy="737.36218"
       sodipodi:rx="5"
       sodipodi:ry="1"
       d="m -440,737.36218 a 5,1 0 1 1 -10,0 5,1 0 1 1 10,0 z"
       transform="matrix(2.3069809,0,0,4.1411394,1042.6064,-3048.6179)" />
    <g
       transform="matrix(0.51461636,0,0,0.51461636,-295.38555,-132.63969)"
       style="font-size:12px;font-style:oblique;font-variant:normal;font-weight:normal;font-stretch:normal;line-height:125%;letter-spacing:0px;word-spacing:0px;fill:#0066ff;fill-opacity:1;stroke:none;font-family:Monotype Corsiva;-inkscape-font-specification:Monotype Corsiva Oblique"
       id="flowRoot5509-45-7-4-1-7-2-0-5-8">
      <path
         d="m 595.64062,296.03597 c -10e-6,1.07422 -0.306,2.02149 -0.91796,2.8418 -0.53387,0.72265 -1.23374,1.25976 -2.09961,1.61132 -0.79428,0.32552 -1.74155,0.48828 -2.8418,0.48829 -1.36719,-10e-6 -2.70834,-0.3125 -4.02344,-0.9375 l -0.11719,-0.21485 c 0.1823,-0.74869 0.27344,-1.81315 0.27344,-3.19336 l 0.0977,-0.0976 0.625,0 0.0879,0.0976 0,0.22461 c 0,0.36459 0.0391,0.84636 0.11719,1.44531 0.23437,0.41667 0.65429,0.77475 1.25976,1.07422 0.63151,0.3125 1.28906,0.46875 1.97266,0.46875 1.28905,0 2.18098,-0.44921 2.67578,-1.34765 0.2539,-0.46224 0.38085,-0.94076 0.38086,-1.43555 -10e-6,-0.83333 -0.34832,-1.42903 -1.04492,-1.78711 -0.34506,-0.17578 -0.9017,-0.32226 -1.66992,-0.43945 -1.73829,-0.26692 -2.88087,-0.60221 -3.42774,-1.00586 -0.82682,-0.61197 -1.24023,-1.55924 -1.24023,-2.8418 0,-1.33462 0.44921,-2.39908 1.34765,-3.19336 0.95052,-0.83332 2.27213,-1.24998 3.96485,-1.25 1.52343,2e-5 2.75389,0.24416 3.6914,0.73242 l 0.0684,0.23438 c -0.15626,0.77475 -0.25066,1.70574 -0.2832,2.79297 l -0.10742,0.0977 -0.61524,0 -0.0976,-0.0977 c -0.0195,-0.78124 -0.0521,-1.28905 -0.0977,-1.52344 -0.20183,-0.30598 -0.55339,-0.56639 -1.05469,-0.78125 -0.53386,-0.22134 -1.0905,-0.33202 -1.66992,-0.33203 -0.8724,10e-6 -1.5625,0.23113 -2.07031,0.69336 -0.47527,0.43621 -0.7129,0.99936 -0.71289,1.68945 -10e-6,0.74871 0.27018,1.29884 0.81054,1.65039 0.35156,0.22787 1.18164,0.44597 2.49024,0.6543 0.13671,0.0195 0.51757,0.0846 1.14258,0.19531 0.3841,0.0651 0.73892,0.15951 1.06445,0.2832 0.65754,0.24741 1.15233,0.62501 1.48438,1.13282 0.35806,0.55339 0.53709,1.24349 0.5371,2.07031 z"
         style="font-size:20px;font-style:normal;font-weight:bold;fill:#0066ff;font-family:Palatino Linotype;-inkscape-font-specification:Palatino Linotype Bold"
         id="path12615" />
      <path
         d="m 612.4375,293.33089 c -2e-5,1.51693 -0.29624,2.85157 -0.88867,4.00391 -0.612,1.1849 -1.49416,2.08821 -2.64649,2.70996 -1.15235,0.62174 -2.5293,0.93261 -4.13086,0.93262 -0.20183,-10e-6 -0.4069,-0.007 -0.61523,-0.0195 0.57291,0.0977 1.57551,0.40039 3.00781,0.90821 l 1.52344,0.53711 c 0.81379,0.28645 1.46483,0.42968 1.95312,0.42968 0.33202,0 0.83983,-0.14974 1.52344,-0.44921 l 0.0977,0.0879 0,0.52734 -0.0781,0.13672 c -1.19142,0.71614 -1.85548,1.14257 -1.99218,1.2793 -0.61851,-10e-6 -1.85874,-0.28321 -3.72071,-0.84961 -1.88152,-0.57292 -3.09245,-0.85938 -3.63281,-0.85938 -0.31251,0 -0.92448,0.2832 -1.83594,0.84961 l -0.14648,-0.0488 -0.15625,-0.44922 0.0391,-0.14648 c 0.13021,-0.1237 0.44271,-0.35482 0.9375,-0.69336 0.89192,-0.61198 1.61132,-1.04167 2.1582,-1.28906 -1.88151,-0.13021 -3.37565,-0.80078 -4.48242,-2.01172 -1.15885,-1.26302 -1.73828,-2.94596 -1.73828,-5.04883 0,-2.27213 0.66732,-4.06086 2.00195,-5.36621 1.33464,-1.30533 3.19987,-1.95799 5.59571,-1.95801 2.92967,2e-5 5.01952,0.9896 6.26953,2.96875 0.638,1.00913 0.95701,2.28191 0.95703,3.81836 z m -3.00781,0.50781 c -2e-5,-1.88801 -0.37925,-3.38703 -1.1377,-4.49707 -0.75847,-1.11001 -1.87012,-1.66502 -3.33496,-1.66504 -1.9336,2e-5 -3.21615,0.86916 -3.84766,2.60743 -0.32552,0.89193 -0.48828,1.89128 -0.48828,2.99804 0,2.01173 0.37109,3.60027 1.11328,4.76563 0.76823,1.20443 1.91732,1.80664 3.44727,1.80664 1.85546,0 3.1022,-0.91471 3.74023,-2.74414 0.33853,-0.97005 0.5078,-2.06054 0.50782,-3.27149 z"
         style="font-size:20px;font-style:normal;font-weight:bold;fill:#0066ff;font-family:Palatino Linotype;-inkscape-font-specification:Palatino Linotype Bold"
         id="path12617" />
      <path
         d="m 624.75195,297.28597 c -0.14324,0.95052 -0.21485,2.02474 -0.21484,3.22266 l -0.0977,0.0977 -7.09961,-0.0586 c -1.18489,0 -2.02148,0.0195 -2.50976,0.0586 l -0.0977,-0.0977 0,-0.27344 0.0488,-0.11719 c 0.48177,-0.30599 0.74219,-0.49805 0.78125,-0.57617 0.0586,-0.11719 0.0944,-0.55013 0.10742,-1.29883 l 0.0293,-2.1875 0,-4.95117 c 0,-1.54947 -0.0423,-2.55858 -0.12695,-3.02735 -0.0326,-0.18878 -0.14324,-0.30923 -0.33204,-0.36132 -0.0977,-0.026 -0.47851,-0.0586 -1.14257,-0.0977 l -0.0977,-0.0977 0,-0.66406 0.0977,-0.0879 c 0.67057,0.0391 1.65364,0.0586 2.94921,0.0586 1.34115,2e-5 2.36003,-0.0195 3.05665,-0.0586 l 0.0977,0.0879 0,0.67383 -0.0977,0.0879 c -0.66407,0.0391 -1.04493,0.0716 -1.14258,0.0977 -0.18881,0.0521 -0.29949,0.17254 -0.33203,0.36132 -0.0846,0.46877 -0.12696,1.47788 -0.12696,3.02735 l 0,5.83984 c 0,0.85287 0.0163,1.67969 0.0488,2.48047 l 1.32813,0 c 1.90103,0 3.06639,-0.0749 3.49609,-0.22461 0.0716,-0.026 0.12369,-0.0619 0.15625,-0.10742 0.0651,-0.0911 0.12694,-0.28646 0.18555,-0.58594 l 0.23437,-1.21094 0.0977,-0.10742 0.5957,0 z"
         style="font-size:20px;font-style:normal;font-weight:bold;fill:#0066ff;font-family:Palatino Linotype;-inkscape-font-specification:Palatino Linotype Bold"
         id="path12619" />
    </g>
  </g>
</svg>
