<?xml version="1.0" encoding="UTF-8" standalone="no"?>
<!-- Created with Inkscape (http://www.inkscape.org/) -->

<svg
   xmlns:dc="http://purl.org/dc/elements/1.1/"
   xmlns:cc="http://creativecommons.org/ns#"
   xmlns:rdf="http://www.w3.org/1999/02/22-rdf-syntax-ns#"
   xmlns:svg="http://www.w3.org/2000/svg"
   xmlns="http://www.w3.org/2000/svg"
   xmlns:sodipodi="http://sodipodi.sourceforge.net/DTD/sodipodi-0.dtd"
   xmlns:inkscape="http://www.inkscape.org/namespaces/inkscape"
   width="32px"
   height="32px"
   id="svg13575"
   version="1.1"
   inkscape:version="0.48.4 r9939"
   sodipodi:docname="New document 43">
  <defs
     id="defs13577" />
  <sodipodi:namedview
     id="base"
     pagecolor="#ffffff"
     bordercolor="#666666"
     borderopacity="1.0"
     inkscape:pageopacity="0.0"
     inkscape:pageshadow="2"
     inkscape:zoom="11.197802"
     inkscape:cx="29.159852"
     inkscape:cy="26.026298"
     inkscape:current-layer="layer1"
     showgrid="true"
     inkscape:grid-bbox="true"
     inkscape:document-units="px"
     inkscape:snap-bbox="true"
     inkscape:window-width="944"
     inkscape:window-height="1002"
     inkscape:window-x="960"
     inkscape:window-y="0"
     inkscape:window-maximized="0">
    <inkscape:grid
       type="xygrid"
       id="grid13583" />
  </sodipodi:namedview>
  <metadata
     id="metadata13580">
    <rdf:RDF>
      <cc:Work
         rdf:about="">
        <dc:format>image/svg+xml</dc:format>
        <dc:type
           rdf:resource="http://purl.org/dc/dcmitype/StillImage" />
        <dc:title></dc:title>
      </cc:Work>
    </rdf:RDF>
  </metadata>
  <g
     id="layer1"
     inkscape:label="Layer 1"
     inkscape:groupmode="layer">
    <rect
       inkscape:export-ydpi="669.00226"
       inkscape:export-xdpi="669.00226"
       inkscape:export-filename="D:\Workspace\ORIGAME\Application\graphics\part_info.png"
       rx="0"
       ry="0"
       y="-4.5276283e-016"
       x="0"
       height="32"
       width="32"
       id="rect5820-2-55-1-0-4-43-1-5-9-0-7-8-4"
       style="fill:#e7e7e7;fill-opacity:1;stroke:none" />
    <g
       transform="matrix(1.7166021,0,0,1.7166021,-993.19254,-488.25325)"
       style="font-size:12px;font-style:oblique;font-variant:normal;font-weight:normal;font-stretch:normal;line-height:125%;letter-spacing:0px;word-spacing:0px;fill:#0055d4;fill-opacity:1;stroke:none;font-family:Monotype Corsiva;-inkscape-font-specification:Monotype Corsiva Oblique"
       id="flowRoot5509-1-6-2-4">
      <path
         d="m 588.30664,287.99886 c 0,-0.40363 0.12695,-0.74868 0.38086,-1.03516 0.2539,-0.28644 0.57942,-0.42967 0.97656,-0.42968 0.33854,10e-6 0.60547,0.10255 0.80078,0.30761 0.19531,0.20509 0.29297,0.47039 0.29297,0.7959 0,0.39715 -0.11719,0.75685 -0.35156,1.0791 -0.23438,0.32228 -0.56316,0.48341 -0.98633,0.4834 -0.39714,10e-6 -0.68197,-0.11392 -0.85449,-0.3418 -0.17253,-0.22785 -0.25879,-0.51431 -0.25879,-0.85937 z m -3.06641,5.91797 -0.19531,-0.3418 0.0195,-0.12695 c 1.14583,-0.89192 2.03939,-1.52343 2.68067,-1.89453 0.64127,-0.37109 1.14094,-0.55663 1.49902,-0.55664 0.16276,10e-6 0.30273,0.07 0.41992,0.20996 0.11718,0.13998 0.17578,0.31739 0.17578,0.53222 0,0.28647 -0.0505,0.6478 -0.15136,1.08399 -0.10092,0.4362 -0.31414,1.26303 -0.63965,2.48047 -0.56641,2.09635 -0.84961,3.31055 -0.84961,3.64258 0,0.0911 0.0277,0.1709 0.083,0.23925 0.0553,0.0684 0.11881,0.10254 0.19043,0.10254 0.1953,0 0.71614,-0.30273 1.5625,-0.9082 l 0.11718,0.01 0.21485,0.39063 -0.0391,0.12695 c -0.45573,0.32553 -0.99935,0.69825 -1.63085,1.11817 -0.63152,0.41992 -1.08236,0.68196 -1.35254,0.78613 -0.27019,0.10417 -0.50619,0.15625 -0.70801,0.15625 -0.25391,0 -0.44271,-0.0944 -0.56641,-0.2832 -0.1237,-0.18881 -0.18555,-0.43295 -0.18554,-0.73243 -10e-6,-0.29947 0.0374,-0.63964 0.1123,-1.0205 0.0749,-0.38086 0.236,-1.04004 0.4834,-1.97754 0.54687,-2.08984 0.82031,-3.32031 0.82031,-3.69141 0,-0.18228 -0.0749,-0.27343 -0.22461,-0.27344 -0.2474,1e-5 -0.8138,0.31251 -1.69922,0.9375 z"
         style="font-size:20px;font-style:italic;font-weight:bold;fill:#0055d4;font-family:Palatino Linotype;-inkscape-font-specification:Palatino Linotype Bold Italic"
         id="path13631" />
    </g>
  </g>
</svg>
