<?xml version="1.0" encoding="UTF-8" standalone="no"?>
<!-- Created with Inkscape (http://www.inkscape.org/) -->

<svg
   xmlns:dc="http://purl.org/dc/elements/1.1/"
   xmlns:cc="http://creativecommons.org/ns#"
   xmlns:rdf="http://www.w3.org/1999/02/22-rdf-syntax-ns#"
   xmlns:svg="http://www.w3.org/2000/svg"
   xmlns="http://www.w3.org/2000/svg"
   xmlns:sodipodi="http://sodipodi.sourceforge.net/DTD/sodipodi-0.dtd"
   xmlns:inkscape="http://www.inkscape.org/namespaces/inkscape"
   width="32px"
   height="32px"
   id="svg12658"
   version="1.1"
   inkscape:version="0.48.4 r9939"
   sodipodi:docname="part_variable.svg">
  <defs
     id="defs12660" />
  <sodipodi:namedview
     id="base"
     pagecolor="#ffffff"
     bordercolor="#666666"
     borderopacity="1.0"
     inkscape:pageopacity="0.0"
     inkscape:pageshadow="2"
     inkscape:zoom="11.197802"
     inkscape:cx="28.905364"
     inkscape:cy="18.333649"
     inkscape:current-layer="layer1"
     showgrid="true"
     inkscape:grid-bbox="true"
     inkscape:document-units="px"
     inkscape:snap-bbox="true"
     inkscape:window-width="944"
     inkscape:window-height="1002"
     inkscape:window-x="960"
     inkscape:window-y="0"
     inkscape:window-maximized="0">
    <inkscape:grid
       type="xygrid"
       id="grid12666" />
  </sodipodi:namedview>
  <metadata
     id="metadata12663">
    <rdf:RDF>
      <cc:Work
         rdf:about="">
        <dc:format>image/svg+xml</dc:format>
        <dc:type
           rdf:resource="http://purl.org/dc/dcmitype/StillImage" />
        <dc:title></dc:title>
      </cc:Work>
    </rdf:RDF>
  </metadata>
  <g
     id="layer1"
     inkscape:label="Layer 1"
     inkscape:groupmode="layer">
    <rect
       inkscape:export-ydpi="669.00226"
       inkscape:export-xdpi="669.00226"
       inkscape:export-filename="D:\Workspace\ORIGAME\Application\graphics\part_variable.png"
       rx="0"
       ry="0"
       y="-4.5276283e-016"
       x="-4.3747558e-017"
       height="32"
       width="32"
       id="rect5820-2-55-1-0-4-43-1-2-3-3-4-2-8-7-16-8-6"
       style="fill:#038800;fill-opacity:1;stroke:none" />
    <rect
       y="4.8145099"
       x="4.8143964"
       height="22.371069"
       width="22.371069"
       id="rect5246-4-8-8-6"
       style="fill:#ffffff;fill-opacity:1;stroke:#ffffff;stroke-width:1.85759032;stroke-miterlimit:4;stroke-opacity:1;stroke-dasharray:none" />
    <g
       transform="matrix(1.7743076,0,0,1.7743076,-1029.7516,-509.18095)"
       style="font-size:12px;font-style:oblique;font-variant:normal;font-weight:normal;font-stretch:normal;line-height:125%;letter-spacing:0px;word-spacing:0px;fill:#038800;fill-opacity:1;stroke:none;font-family:Monotype Corsiva;-inkscape-font-specification:Monotype Corsiva Oblique"
       id="flowRoot5509-4-0-5-2-3">
      <path
         d="m 584.3125,300.70394 c 0.10417,-0.28646 0.1888,-0.65104 0.25391,-1.09375 0.0651,-0.44271 0.0976,-0.7015 0.0976,-0.77637 0,-0.0749 -0.003,-0.14811 -0.01,-0.21973 l 0.48828,-0.0488 0.11719,0.625 c 0.19531,0.0781 0.36783,0.11718 0.51757,0.11718 0.22787,0 0.47526,-0.083 0.74219,-0.24902 0.26693,-0.16601 0.64453,-0.56803 1.13281,-1.20605 0.48828,-0.63802 0.80404,-1.07096 0.94727,-1.29883 -0.20183,-1.21094 -0.35645,-2.06217 -0.46387,-2.55371 -0.10742,-0.49153 -0.26367,-0.8138 -0.46875,-0.9668 -0.20508,-0.15299 -0.40527,-0.22949 -0.60058,-0.22949 -0.2474,0 -0.50131,0.0846 -0.76172,0.2539 -0.26042,0.16928 -0.45573,0.37436 -0.58594,0.61524 l -0.11719,0.0391 -0.32226,-0.18555 -0.0195,-0.10742 c 0.65104,-1.02864 1.02864,-1.69595 1.13281,-2.00195 0.52083,-0.26692 1.01236,-0.40038 1.47461,-0.40039 0.61848,1e-5 1.08723,0.16765 1.40625,0.50293 0.319,0.33529 0.53385,0.70639 0.64453,1.11328 0.11067,0.40691 0.21809,1.01726 0.32226,1.83105 0.9375,-1.37369 1.57389,-2.22981 1.90918,-2.56836 0.33528,-0.33853 0.63313,-0.56639 0.89356,-0.68359 0.26041,-0.11718 0.5078,-0.17577 0.74219,-0.17578 0.18879,10e-6 0.4134,0.0521 0.67382,0.15625 -0.22787,0.55339 -0.38086,1.28581 -0.45898,2.19726 l -0.41992,0.0781 -0.18555,-0.55664 c -0.13673,-0.0651 -0.26368,-0.0977 -0.38086,-0.0977 -0.35157,10e-6 -0.70313,0.15789 -1.05469,0.47364 -0.35157,0.31576 -0.8724,0.97494 -1.5625,1.97753 0.20182,1.32813 0.3776,2.25424 0.52735,2.77833 0.14973,0.52409 0.30273,0.86751 0.45898,1.03027 0.15625,0.16276 0.31575,0.24414 0.47852,0.24414 0.29296,0 0.79101,-0.30273 1.49414,-0.9082 l 0.11719,0.01 0.22461,0.36133 -0.0195,0.11719 c -1.13933,0.99609 -1.88314,1.59017 -2.23144,1.78222 -0.34831,0.19206 -0.65268,0.28809 -0.91309,0.28809 -0.29948,0 -0.56966,-0.11719 -0.81054,-0.35156 -0.24089,-0.23438 -0.41505,-0.55339 -0.52246,-0.95703 -0.10743,-0.40365 -0.24903,-1.17839 -0.42481,-2.32422 -0.76172,1.10677 -1.30371,1.85709 -1.62598,2.25097 -0.32226,0.39388 -0.58594,0.68523 -0.79101,0.87403 -0.20508,0.1888 -0.40365,0.32064 -0.5957,0.39551 -0.19206,0.0749 -0.39226,0.1123 -0.60059,0.1123 -0.13021,0 -0.23275,-0.0114 -0.30762,-0.0342 -0.0749,-0.0228 -0.25553,-0.0993 -0.54199,-0.22949 z"
         style="font-size:20px;font-style:italic;font-weight:bold;fill:#038800;font-family:Palatino Linotype;-inkscape-font-specification:Palatino Linotype Bold Italic"
         id="path12702" />
    </g>
  </g>
</svg>
